<?xml version="1.0" encoding="utf-8"?>
<!-- Generator: Adobe Illustrator 21.0.0, SVG Export Plug-In . SVG Version: 6.00 Build 0)  -->
<!DOCTYPE svg PUBLIC "-//W3C//DTD SVG 1.1//EN" "http://www.w3.org/Graphics/SVG/1.1/DTD/svg11.dtd">
<svg version="1.1" id="Laag_1" xmlns="http://www.w3.org/2000/svg" xmlns:xlink="http://www.w3.org/1999/xlink" x="0px" y="0px"
	 width="1275px" height="850px" viewBox="0 0 1275 850" style="enable-background:new 0 0 1275 850;" xml:space="preserve">
<style type="text/css">
	.st0{fill:none;}
	.st1{fill:#FFB511;}
	.st2{fill:#F7F5F0;}
	.st3{fill:#0F1941;}
	.st4{fill:#2175D9;}
</style>
<rect y="0" class="st0" width="1275" height="850"/>
<g>
	<rect y="92.4" class="st1" width="381.7" height="757.6"/>
	<rect x="63.2" y="356.4" class="st2" width="87.3" height="87.3"/>
	<rect x="222.4" y="356.4" class="st2" width="87.3" height="87.3"/>
	<rect x="63.2" y="518.7" class="st2" width="87.3" height="87.3"/>
	<rect x="222.4" y="518.7" class="st2" width="87.3" height="87.3"/>
	<polygon class="st3" points="532.6,423.6 381.7,423.6 381.7,92.4 532.6,172.7 	"/>
	<rect x="63.2" y="178.3" class="st2" width="87.3" height="87.3"/>
	<rect x="222.4" y="178.3" class="st2" width="87.3" height="87.3"/>
	<polygon class="st3" points="751.3,631.3 600.4,631.3 600.4,298.5 751.3,378.9 	"/>
	<polygon class="st4" points="600.4,631.3 600.4,298.5 272.8,298.5 272.8,850 600.4,850 919.2,850 919.2,631.3 	"/>
	<path class="st2" d="M381.7,356.4L381.7,356.4c-18.1,0-33,14.8-33,33v76.3h65.9v-76.3C414.6,371.2,399.8,356.4,381.7,356.4z"/>
	<path class="st2" d="M499.6,356.4L499.6,356.4c-18.1,0-33,14.8-33,33v76.3h65.9v-76.3C532.6,371.2,517.8,356.4,499.6,356.4z"/>
	<path class="st2" d="M499.6,523.1L499.6,523.1c-18.1,0-33,14.8-33,33v76.3h65.9V556C532.6,537.9,517.8,523.1,499.6,523.1z"/>
	<path class="st2" d="M381.7,746.1L381.7,746.1c-18.1,0-33,14.8-33,33V850h65.9v-70.9C414.6,760.9,399.8,746.1,381.7,746.1z"/>
</g>
<g>
</g>
<g>
</g>
<g>
</g>
<g>
</g>
<g>
</g>
<g>
</g>
<g>
</g>
<g>
</g>
<g>
</g>
<g>
</g>
<g>
</g>
<g>
</g>
<g>
</g>
<g>
</g>
<g>
</g>
</svg>
