<?xml version="1.0" encoding="UTF-8"?>
<svg width="385px" height="365px" viewBox="0 0 385 365" version="1.1" xmlns="http://www.w3.org/2000/svg" xmlns:xlink="http://www.w3.org/1999/xlink">
    <!-- Generator: Sketch 53 (72520) - https://sketchapp.com -->
    <title>image</title>
    <desc>Created with Sketch.</desc>
    <g id="secondary-search" stroke="none" stroke-width="1" fill="none" fill-rule="evenodd">
        <g id="viewport-L---find-location---blue" transform="translate(-1035.000000, -57.000000)">
            <g id="find-a-location" transform="translate(-1.000000, 0.000000)">
                <g id="image" transform="translate(1036.000000, 57.000000)">
                    <path d="M384.971632,214.055562 C384.906997,171.441377 350.391484,136.987355 307.92577,137.052118 C265.395419,137.116881 231.009178,171.70043 231.073814,214.249852 C228.423747,261.073645 297.971858,316.769997 304.176894,321.627237 C304.952523,322.469158 306.568418,323.052027 308.442856,323.052027 C310.252658,323.052027 311.868553,322.469158 312.644182,321.692 C318.655311,317.029049 386.587527,263.534647 384.971632,214.055562 Z M307.990405,248.703874 C288.858211,248.703874 273.280986,233.095943 273.280986,213.926036 C273.280986,194.756129 288.858211,179.148198 307.990405,179.148198 C327.1226,179.148198 342.699825,194.756129 342.699825,213.926036 C342.699825,233.095943 327.1226,248.703874 307.990405,248.703874 Z" id="shape" fill="#FFB511"/>
                    <path d="M309,180.052027 C289.707635,180.052027 274,195.759662 274,215.052027 C274,234.344392 289.707635,250.052027 309,250.052027 C328.292365,250.052027 344,234.344392 344,215.052027 C344,195.759662 328.292365,180.052027 309,180.052027 Z M309,190.024094 C322.752328,190.024094 333.962756,201.234522 333.962756,214.98685 C333.962756,228.739178 322.752328,239.949606 309,239.949606 C295.247672,239.949606 284.037244,228.739178 284.037244,214.98685 C284.037244,201.234522 295.247672,190.024094 309,190.024094 Z" id="shape" fill="#F7F5F0" fill-rule="nonzero"/>
                    <path d="M301.946409,150.757725 C301.816852,67.4355892 234.188218,-0.0773701597 150.818436,0.0522132557 C67.4486547,0.181796671 0.0791341193,67.8243395 0.143912504,151.211267 C-5.03835831,242.76195 131.384921,351.806394 143.498479,361.330775 C145.05316,362.950568 148.162523,364.052027 151.854891,364.052027 C155.48248,364.052027 158.591843,362.950568 160.146524,361.395567 C171.871412,352.324728 305.055772,247.68612 301.946409,150.757725 Z M151.012772,218.659435 C113.506087,218.659435 82.9954672,188.142541 82.9954672,150.628142 C82.9954672,113.113743 113.506087,82.5968488 151.012772,82.5968488 C188.519457,82.5968488 219.030076,113.113743 219.030076,150.628142 C219.030076,188.142541 188.519457,218.659435 151.012772,218.659435 Z" id="shape" fill="#0F1941"/>
                    <path d="M150.5,83.052027 C113.278571,83.052027 83,113.330598 83,150.552027 C83,187.773456 113.278571,218.052027 150.5,218.052027 C187.721429,218.052027 218,187.773456 218,150.552027 C218,113.330598 187.721429,83.052027 150.5,83.052027 Z M150.5,198.766313 C123.885714,198.766313 102.285714,177.166313 102.285714,150.552027 C102.285714,123.937741 123.885714,102.337741 150.5,102.337741 C177.114286,102.337741 198.714286,123.937741 198.714286,150.552027 C198.714286,177.166313 177.114286,198.766313 150.5,198.766313 Z" id="shape" fill="#F7F5F0" fill-rule="nonzero"/>
                </g>
            </g>
        </g>
    </g>
</svg>